<!DOCTYPE svg PUBLIC "-//W3C//DTD SVG 1.1//EN" "http://www.w3.org/Graphics/SVG/1.1/DTD/svg11.dtd">
<!-- Uploaded to: SVG Repo, www.svgrepo.com, Transformed by: SVG Repo Mixer Tools -->
<svg fill="#000000" width="256px" height="256px" viewBox="0 0 24 24" id="fighter-jet" data-name="Flat Color" xmlns="http://www.w3.org/2000/svg" class="icon flat-color" stroke="#000000">
<g id="SVGRepo_bgCarrier" stroke-width="0"/>
<g id="SVGRepo_tracerCarrier" stroke-linecap="round" stroke-linejoin="round"/>
<g id="SVGRepo_iconCarrier">
<path id="primary" d="M19,12a1,1,0,0,1-1-1V9a1,1,0,0,1,2,0v2A1,1,0,0,1,19,12ZM6,11V9A1,1,0,0,0,4,9v2a1,1,0,0,0,2,0Z" style="fill: #000000;"/>
<path id="secondary" d="M22,12.62V15a1,1,0,0,1-1,1H15a1,1,0,0,1-1-1V9a1,1,0,0,1,.47-.85,1,1,0,0,1,1-.05l5.44,2.73A2,2,0,0,1,22,12.62ZM9.53,8.15a1,1,0,0,0-1-.05L3.11,10.83A2,2,0,0,0,2,12.62V15a1,1,0,0,0,1,1H9a1,1,0,0,0,1-1V9A1,1,0,0,0,9.53,8.15Z" style="fill: #2ca9bc;"/>
<path id="primary-2" data-name="primary" d="M17.89,18.33A3.42,3.42,0,0,1,16,15.26V8.83a8.77,8.77,0,0,0-2.58-6.24,2,2,0,0,0-2.84,0A8.77,8.77,0,0,0,8,8.83v6.43a3.42,3.42,0,0,1-1.89,3.07A2,2,0,0,0,5,20.12V21a1,1,0,0,0,1,1H18a1,1,0,0,0,1-1v-.88A2,2,0,0,0,17.89,18.33Z" style="fill: #000000;"/>
</g>
</svg>