<!DOCTYPE svg PUBLIC "-//W3C//DTD SVG 1.1//EN" "http://www.w3.org/Graphics/SVG/1.1/DTD/svg11.dtd">
<!-- Uploaded to: SVG Repo, www.svgrepo.com, Transformed by: SVG Repo Mixer Tools -->
<svg fill="#3b05ff" version="1.1" id="Capa_1" xmlns="http://www.w3.org/2000/svg" xmlns:xlink="http://www.w3.org/1999/xlink" width="256px" height="256px" viewBox="0 0 490.647 490.647" xml:space="preserve" stroke="#3b05ff">
<g id="SVGRepo_bgCarrier" stroke-width="0"/>
<g id="SVGRepo_tracerCarrier" stroke-linecap="round" stroke-linejoin="round"/>
<g id="SVGRepo_iconCarrier"> <g> <g> <path d="M192.672,369.735l-49.404,34.115v39.145c0,0,55.042,24.08,69.597,47.652l6.45-4.517l6.989-90.809l6.13,17.067l12.89,0.489 l12.896-0.497l6.132-17.06l6.993,90.805l6.456,4.512c14.534-23.571,69.581-47.644,69.581-47.644v-39.145l-49.404-34.115 l1.271-6.517c55.684-2.509,103.083-22.569,103.083-22.569v-49.681c0,0-18.062-9.329-39.253-22.754v-5.313 c0-6.092-4.94-34.588-11.036-34.588h-1.475c-4.324,0-8.055,14.292-9.875,24.797c-3.065-2.22-6.079-4.482-9.021-6.782V223.65 c0.009-6.093-4.937-34.59-11.032-34.59h-1.471c-6.096,0-11.04,28.497-11.04,34.59v0.998c-7.054-8.195-11.546-16.214-11.546-23.414 c0-35.113-4.921-80.708-8.428-79.201c-3.51,1.505-10.339,14.17-10.339,14.17s-12.684,3.761-12.684-54.435 c0-58.196-19.809-81.77-19.809-81.77s-19.812,23.582-19.812,81.777s-12.674,54.435-12.674,54.435s-6.834-12.673-10.345-14.172 c-3.508-1.505-8.421,44.09-8.421,79.203c0,9.594-7.923,20.648-19.4,31.647v-9.224c0-6.109-4.945-34.606-11.037-34.606h-1.479 c-6.091,0-11.037,28.497-11.037,34.59v28.619c-2.725,1.991-5.496,3.939-8.267,5.851c-1.292-10.143-5.546-29.807-10.618-29.807 h-1.48c-6.091,0-11.035,28.497-11.035,34.588v10.19c-17.61,10.748-31.402,17.877-31.402,17.877v49.664 c0,0,47.401,20.069,103.083,22.586L192.672,369.735z"/> </g> </g> </g>
</svg>