<!DOCTYPE svg PUBLIC "-//W3C//DTD SVG 1.1//EN" "http://www.w3.org/Graphics/SVG/1.1/DTD/svg11.dtd">
<!-- Uploaded to: SVG Repo, www.svgrepo.com, Transformed by: SVG Repo Mixer Tools -->
<svg fill="#162ac0" version="1.1" id="Capa_1" xmlns="http://www.w3.org/2000/svg" xmlns:xlink="http://www.w3.org/1999/xlink" width="256px" height="256px" viewBox="0 0 462.68 462.68" xml:space="preserve" stroke="#162ac0">
<g id="SVGRepo_bgCarrier" stroke-width="0"/>
<g id="SVGRepo_tracerCarrier" stroke-linecap="round" stroke-linejoin="round"/>
<g id="SVGRepo_iconCarrier"> <g> <g> <path d="M425.82,338.057l-90.031-63.787l-7.369-25.511l-49.056-14.72v-44.164l-24.128-65.872c0,0,0.408-74.707-7.442-88.444 S232.262,0,232.262,0s-8.668,21.828-16.519,35.567c-7.849,13.738-6.957,88.436-6.957,88.436l-23.628,65.872v44.164l-50.045,14.72 l-7.851,25.511l-90.279,63.787l-10.796,52.008l149.158-41.217l0.982,27.479l-54.954,62.8l3.925,23.553l55.934-25.512l2.943-18.646 l11.776-6.869l-1.467,30.421l22.075-0.982l7.851-26.493l7.851,0.982l7.851-0.982l7.851,26.493l21.095,0.982l-2.444-30.421 l11.777,6.869l2.941,18.646l55.937,25.512l3.931-23.553l-54.938-62.8l1.014-27.479l149.217,41.217L425.82,338.057z"/> </g> </g> </g>
</svg>